<svg width="33" height="33" viewBox="0 0 33 33" fill="none" xmlns="http://www.w3.org/2000/svg">
<path d="M29.5556 21.6667C29.5556 21.1144 29.1078 20.6667 28.5556 20.6667C28.0033 20.6667 27.5556 21.1144 27.5556 21.6667H29.5556ZM11.3337 5.44444C11.886 5.44444 12.3337 4.99673 12.3337 4.44444C12.3337 3.89216 11.886 3.44444 11.3337 3.44444V5.44444ZM1.37542 6.32518L2.26643 6.77917L1.37542 6.32518ZM2.88032 4.81987L3.33431 5.71087L2.88032 4.81987ZM2.88032 31.6245L3.33431 30.7335L3.33431 30.7335L2.88032 31.6245ZM1.37542 30.1193L0.484415 30.5733L0.484415 30.5733L1.37542 30.1193ZM28.1805 30.1193L27.2895 29.6653L28.1805 30.1193ZM26.6745 31.6245L26.2205 30.7335L26.6745 31.6245ZM11.3333 21.6667H10.3333C10.3333 22.219 10.781 22.6667 11.3333 22.6667V21.6667ZM11.3333 16.5L10.6262 15.7929C10.4387 15.9804 10.3333 16.2348 10.3333 16.5H11.3333ZM26.8333 1L27.5404 0.292893C27.1499 -0.0976311 26.5168 -0.0976311 26.1262 0.292893L26.8333 1ZM32 6.16667L32.7071 6.87377C33.0976 6.48325 33.0976 5.85008 32.7071 5.45956L32 6.16667ZM16.5 21.6667V22.6667C16.7652 22.6667 17.0196 22.5613 17.2071 22.3738L16.5 21.6667ZM22.3738 5.45956C21.9832 5.06904 21.3501 5.06904 20.9596 5.45956C20.569 5.85008 20.569 6.48325 20.9596 6.87377L22.3738 5.45956ZM26.1262 12.0404C26.5168 12.431 27.1499 12.431 27.5404 12.0404C27.931 11.6499 27.931 11.0168 27.5404 10.6262L26.1262 12.0404ZM27.5556 21.6667V26.4889H29.5556V21.6667H27.5556ZM23.0448 31H6.51145V33H23.0448V31ZM2 26.4889V9.95558H0V26.4889H2ZM6.51145 5.44444H11.3337V3.44444H6.51145V5.44444ZM2 9.95558C2 8.97454 2.00078 8.29891 2.04361 7.77471C2.08548 7.26219 2.16252 6.98311 2.26643 6.77917L0.484415 5.87119C0.212905 6.40406 0.102229 6.97564 0.0502489 7.61185C-0.000777719 8.23638 0 9.00754 0 9.95558H2ZM6.51145 3.44444C5.5634 3.44444 4.79208 3.44367 4.16738 3.49469C3.53107 3.54666 2.95926 3.65732 2.42633 3.92886L3.33431 5.71087C3.53818 5.60699 3.8174 5.52994 4.33019 5.48805C4.85459 5.44522 5.53042 5.44444 6.51145 5.44444V3.44444ZM2.26643 6.77917C2.50092 6.31896 2.87461 5.9451 3.33431 5.71087L2.42633 3.92886C1.58979 4.3551 0.910388 5.03517 0.484415 5.87119L2.26643 6.77917ZM6.51145 31C5.53044 31 4.8546 30.9992 4.33021 30.9564C3.81743 30.9145 3.5382 30.8374 3.33431 30.7335L2.42633 32.5155C2.95924 32.7871 3.53104 32.8977 4.16735 32.9497C4.79206 33.0008 5.56339 33 6.51145 33V31ZM0 26.4889C0 27.4369 -0.00077774 28.2081 0.050249 28.8326C0.10223 29.4688 0.212906 30.0404 0.484415 30.5733L2.26643 29.6653C2.16252 29.4613 2.08548 29.1823 2.04361 28.6698C2.00078 28.1456 2 27.4699 2 26.4889H0ZM3.33431 30.7335C2.87457 30.4993 2.5009 30.1255 2.26643 29.6653L0.484415 30.5733C0.910409 31.4093 1.58983 32.0893 2.42633 32.5155L3.33431 30.7335ZM27.5556 26.4889C27.5556 27.47 27.5549 28.1456 27.5121 28.6699C27.4703 29.1825 27.3933 29.4615 27.2895 29.6653L29.0715 30.5733C29.3431 30.0403 29.4536 29.4686 29.5055 28.8325C29.5564 28.208 29.5556 27.4368 29.5556 26.4889H27.5556ZM23.0448 33C23.9928 33 24.7638 33.0008 25.3882 32.9497C26.0244 32.8977 26.5957 32.787 27.1285 32.5155L26.2205 30.7335C26.0165 30.8375 25.7375 30.9145 25.2253 30.9564C24.7013 30.9992 24.0258 31 23.0448 31V33ZM27.2895 29.6653C27.0554 30.1248 26.6809 30.4989 26.2205 30.7335L27.1285 32.5155C27.9643 32.0897 28.6452 31.41 29.0715 30.5733L27.2895 29.6653ZM12.3333 21.6667V16.5H10.3333V21.6667H12.3333ZM12.0404 17.2071L27.5404 1.70711L26.1262 0.292893L10.6262 15.7929L12.0404 17.2071ZM26.1262 1.70711L31.2929 6.87377L32.7071 5.45956L27.5404 0.292893L26.1262 1.70711ZM31.2929 5.45956L15.7929 20.9596L17.2071 22.3738L32.7071 6.87377L31.2929 5.45956ZM16.5 20.6667H11.3333V22.6667H16.5V20.6667ZM20.9596 6.87377L26.1262 12.0404L27.5404 10.6262L22.3738 5.45956L20.9596 6.87377Z" fill="#B0AEAE"/>
</svg>
